<svg width="21" height="21" viewBox="0 0 21 21" fill="none" xmlns="http://www.w3.org/2000/svg">
<g clip-path="url(#clip0_168_38213)">
<path fill-rule="evenodd" clip-rule="evenodd" d="M20.5 10.4124C20.5 4.88935 16.023 0.412354 10.5 0.412354C4.977 0.412354 0.5 4.88935 0.5 10.4124C0.5 15.4034 4.157 19.5404 8.938 20.2904V13.3034H6.398V10.4124H8.938V8.20935C8.938 5.70335 10.43 4.31935 12.715 4.31935C13.809 4.31935 14.953 4.51435 14.953 4.51435V6.97435H13.693C12.45 6.97435 12.063 7.74535 12.063 8.53635V10.4124H14.836L14.393 13.3024H12.063V20.2904C16.843 19.5404 20.5 15.4034 20.5 10.4124Z" fill="#0000FF"/>
</g>
<defs>
<clipPath id="clip0_168_38213">
<rect width="20" height="20" fill="white" transform="translate(0.5 0.412354)"/>
</clipPath>
</defs>
</svg>
