<svg width="208" height="46" viewBox="0 0 208 46" fill="none" xmlns="http://www.w3.org/2000/svg">
<path d="M80.5187 15.4545H82.621L87.5641 27.5284H87.7346L92.6778 15.4545H94.7801V30H93.1323V18.9489H92.9903L88.4448 30H86.8539L82.3085 18.9489H82.1664V30H80.5187V15.4545ZM99.1639 34.0909C98.8798 34.0909 98.6265 34.0672 98.404 34.0199C98.1814 33.9773 98.0276 33.9347 97.9423 33.892L98.3685 32.4148C98.7757 32.5189 99.1355 32.5568 99.448 32.5284C99.7605 32.5 100.038 32.3603 100.279 32.1094C100.525 31.8632 100.75 31.4631 100.954 30.9091L101.266 30.0568L97.2321 19.0909H99.0503L102.062 27.7841H102.175L105.187 19.0909H107.005L102.374 31.5909C102.166 32.1544 101.908 32.6207 101.6 32.9901C101.292 33.3641 100.935 33.6411 100.528 33.821C100.125 34.0009 99.6706 34.0909 99.1639 34.0909ZM113.933 30H109.444V15.4545H114.132C115.543 15.4545 116.75 15.7457 117.754 16.3281C118.758 16.9058 119.527 17.7367 120.062 18.821C120.597 19.9006 120.865 21.1932 120.865 22.6989C120.865 24.214 120.595 25.5185 120.055 26.6122C119.515 27.7012 118.73 28.5393 117.697 29.1264C116.665 29.7088 115.41 30 113.933 30ZM111.206 28.4375H113.819C115.022 28.4375 116.019 28.2055 116.81 27.7415C117.6 27.2775 118.19 26.617 118.578 25.7599C118.966 24.9029 119.16 23.8826 119.16 22.6989C119.16 21.5246 118.969 20.5137 118.585 19.6662C118.202 18.8139 117.629 18.1605 116.866 17.706C116.104 17.2467 115.155 17.017 114.018 17.017H111.206V28.4375ZM128.166 30.2273C127.115 30.2273 126.208 29.9953 125.446 29.5312C124.688 29.0625 124.104 28.4091 123.692 27.571C123.284 26.7282 123.081 25.7481 123.081 24.6307C123.081 23.5133 123.284 22.5284 123.692 21.6761C124.104 20.8191 124.676 20.1515 125.41 19.6733C126.149 19.1903 127.011 18.9489 127.996 18.9489C128.564 18.9489 129.125 19.0436 129.679 19.233C130.233 19.4223 130.737 19.7301 131.192 20.1562C131.646 20.5777 132.008 21.1364 132.278 21.8324C132.548 22.5284 132.683 23.3854 132.683 24.4034V25.1136H124.274V23.6648H130.979C130.979 23.0492 130.855 22.5 130.609 22.017C130.368 21.5341 130.022 21.1529 129.572 20.8736C129.127 20.5942 128.602 20.4545 127.996 20.4545C127.328 20.4545 126.75 20.6203 126.263 20.9517C125.78 21.2784 125.408 21.7045 125.148 22.2301C124.887 22.7557 124.757 23.3191 124.757 23.9205V24.8864C124.757 25.7102 124.899 26.4086 125.183 26.9815C125.472 27.5497 125.872 27.983 126.383 28.2812C126.895 28.5748 127.489 28.7216 128.166 28.7216C128.606 28.7216 129.004 28.66 129.359 28.5369C129.719 28.4091 130.029 28.2197 130.29 27.9688C130.55 27.7131 130.751 27.3958 130.893 27.017L132.513 27.4716C132.342 28.0208 132.056 28.5038 131.653 28.9205C131.251 29.3324 130.754 29.6544 130.162 29.8864C129.57 30.1136 128.905 30.2273 128.166 30.2273ZM142.96 21.5341L141.454 21.9602C141.36 21.7093 141.22 21.4654 141.035 21.2287C140.855 20.9872 140.609 20.7884 140.297 20.6321C139.984 20.4759 139.584 20.3977 139.096 20.3977C138.429 20.3977 137.872 20.5516 137.427 20.8594C136.987 21.1624 136.767 21.5483 136.767 22.017C136.767 22.4337 136.918 22.7628 137.221 23.0043C137.524 23.2457 137.998 23.447 138.642 23.608L140.261 24.0057C141.237 24.2424 141.963 24.6046 142.442 25.0923C142.92 25.5753 143.159 26.1979 143.159 26.9602C143.159 27.5852 142.979 28.1439 142.619 28.6364C142.264 29.1288 141.767 29.517 141.128 29.8011C140.489 30.0852 139.745 30.2273 138.898 30.2273C137.785 30.2273 136.864 29.9858 136.135 29.5028C135.406 29.0199 134.944 28.3144 134.75 27.3864L136.341 26.9886C136.492 27.5758 136.779 28.0161 137.2 28.3097C137.626 28.6032 138.183 28.75 138.869 28.75C139.65 28.75 140.271 28.5843 140.73 28.2528C141.194 27.9167 141.426 27.5142 141.426 27.0455C141.426 26.6667 141.293 26.3494 141.028 26.0938C140.763 25.8333 140.356 25.6392 139.807 25.5114L137.989 25.0852C136.989 24.8485 136.256 24.4815 135.787 23.9844C135.323 23.4825 135.091 22.8551 135.091 22.1023C135.091 21.4867 135.264 20.9422 135.609 20.4688C135.96 19.9953 136.435 19.6236 137.037 19.3537C137.643 19.0838 138.329 18.9489 139.096 18.9489C140.176 18.9489 141.024 19.1856 141.639 19.6591C142.259 20.1326 142.7 20.7576 142.96 21.5341ZM148.892 30.2557C148.201 30.2557 147.574 30.1255 147.01 29.8651C146.447 29.5999 145.999 29.2188 145.668 28.7216C145.336 28.2197 145.171 27.6136 145.171 26.9034C145.171 26.2784 145.294 25.7718 145.54 25.3835C145.786 24.9905 146.115 24.6828 146.527 24.4602C146.939 24.2377 147.394 24.072 147.891 23.9631C148.393 23.8494 148.897 23.7595 149.404 23.6932C150.067 23.608 150.604 23.544 151.016 23.5014C151.433 23.4541 151.736 23.3759 151.925 23.267C152.119 23.1581 152.216 22.9687 152.216 22.6989V22.642C152.216 21.9413 152.024 21.3968 151.641 21.0085C151.262 20.6203 150.687 20.4261 149.915 20.4261C149.115 20.4261 148.487 20.6013 148.033 20.9517C147.578 21.3021 147.259 21.6761 147.074 22.0739L145.483 21.5057C145.767 20.8428 146.146 20.3267 146.62 19.9574C147.098 19.5833 147.619 19.3229 148.182 19.1761C148.75 19.0246 149.309 18.9489 149.858 18.9489C150.209 18.9489 150.611 18.9915 151.066 19.0767C151.525 19.1572 151.968 19.3253 152.394 19.581C152.825 19.8366 153.182 20.2225 153.466 20.7386C153.75 21.2547 153.892 21.946 153.892 22.8125V30H152.216V28.5227H152.131C152.017 28.7595 151.828 29.0128 151.563 29.2827C151.298 29.5526 150.945 29.7822 150.504 29.9716C150.064 30.161 149.527 30.2557 148.892 30.2557ZM149.148 28.75C149.811 28.75 150.37 28.6198 150.824 28.3594C151.283 28.099 151.629 27.7628 151.861 27.3509C152.098 26.9389 152.216 26.5057 152.216 26.0511V24.517C152.145 24.6023 151.989 24.6804 151.747 24.7514C151.511 24.8177 151.236 24.8769 150.924 24.929C150.616 24.9763 150.315 25.0189 150.022 25.0568C149.733 25.09 149.498 25.1184 149.318 25.142C148.883 25.1989 148.476 25.2912 148.097 25.419C147.723 25.5421 147.42 25.7292 147.188 25.9801C146.96 26.2263 146.847 26.5625 146.847 26.9886C146.847 27.571 147.062 28.0114 147.493 28.3097C147.929 28.6032 148.48 28.75 149.148 28.75ZM175.14 20.5469H172.03C171.973 20.1444 171.857 19.7869 171.682 19.4744C171.506 19.1572 171.282 18.8873 171.007 18.6648C170.732 18.4422 170.415 18.2718 170.055 18.1534C169.7 18.035 169.314 17.9759 168.898 17.9759C168.145 17.9759 167.489 18.1629 166.93 18.5369C166.372 18.9062 165.938 19.446 165.631 20.1562C165.323 20.8617 165.169 21.7187 165.169 22.7273C165.169 23.7642 165.323 24.6354 165.631 25.3409C165.943 26.0464 166.379 26.5791 166.937 26.9389C167.496 27.2988 168.142 27.4787 168.876 27.4787C169.288 27.4787 169.669 27.4242 170.02 27.3153C170.375 27.2064 170.69 27.0478 170.964 26.8395C171.239 26.6264 171.466 26.3684 171.646 26.0653C171.831 25.7623 171.959 25.4167 172.03 25.0284L175.14 25.0426C175.06 25.7102 174.859 26.3542 174.537 26.9744C174.22 27.59 173.791 28.1416 173.251 28.6293C172.716 29.1122 172.077 29.4957 171.334 29.7798C170.595 30.0592 169.759 30.1989 168.827 30.1989C167.529 30.1989 166.369 29.9053 165.346 29.3182C164.328 28.7311 163.524 27.8812 162.932 26.7685C162.345 25.6558 162.051 24.3087 162.051 22.7273C162.051 21.1411 162.349 19.7917 162.946 18.679C163.542 17.5663 164.352 16.7187 165.375 16.1364C166.398 15.5492 167.548 15.2557 168.827 15.2557C169.669 15.2557 170.451 15.3741 171.17 15.6108C171.895 15.8475 172.536 16.1932 173.095 16.6477C173.654 17.0975 174.108 17.6491 174.459 18.3026C174.814 18.956 175.041 19.7041 175.14 20.5469ZM180.4 30.206C179.704 30.206 179.083 30.0852 178.539 29.8438C177.994 29.5975 177.564 29.2353 177.246 28.7571C176.934 28.2741 176.778 27.6728 176.778 26.9531C176.778 26.3471 176.889 25.8381 177.111 25.4261C177.334 25.0142 177.637 24.6828 178.02 24.4318C178.404 24.1809 178.84 23.9915 179.327 23.8636C179.82 23.7358 180.336 23.6458 180.876 23.5938C181.51 23.5275 182.021 23.4659 182.41 23.4091C182.798 23.3475 183.08 23.2576 183.255 23.1392C183.43 23.0208 183.518 22.8456 183.518 22.6136V22.571C183.518 22.1212 183.376 21.7732 183.091 21.527C182.812 21.2808 182.414 21.1577 181.898 21.1577C181.354 21.1577 180.921 21.2784 180.599 21.5199C180.277 21.7566 180.064 22.0549 179.959 22.4148L177.161 22.1875C177.303 21.5246 177.582 20.9517 177.999 20.4688C178.416 19.9811 178.953 19.607 179.611 19.3466C180.274 19.0814 181.041 18.9489 181.913 18.9489C182.519 18.9489 183.099 19.0199 183.653 19.1619C184.211 19.304 184.706 19.5241 185.137 19.8224C185.573 20.1207 185.916 20.5043 186.167 20.973C186.418 21.437 186.543 21.9934 186.543 22.642V30H183.674V28.4872H183.589C183.413 28.8281 183.179 29.1288 182.886 29.3892C182.592 29.6449 182.239 29.8461 181.827 29.9929C181.415 30.1349 180.939 30.206 180.4 30.206ZM181.266 28.1179C181.711 28.1179 182.104 28.0303 182.445 27.8551C182.786 27.6752 183.054 27.4337 183.248 27.1307C183.442 26.8277 183.539 26.4844 183.539 26.1009V24.9432C183.444 25.0047 183.314 25.0616 183.148 25.1136C182.987 25.161 182.805 25.206 182.601 25.2486C182.398 25.2865 182.194 25.322 181.991 25.3551C181.787 25.3835 181.602 25.4096 181.437 25.4332C181.082 25.4853 180.771 25.5682 180.506 25.6818C180.241 25.7955 180.035 25.9493 179.888 26.1435C179.742 26.3329 179.668 26.5696 179.668 26.8537C179.668 27.2656 179.817 27.5805 180.116 27.7983C180.419 28.0114 180.802 28.1179 181.266 28.1179ZM188.89 30V19.0909H191.824V20.9943H191.937C192.136 20.3172 192.47 19.8059 192.939 19.4602C193.408 19.1098 193.947 18.9347 194.558 18.9347C194.71 18.9347 194.873 18.9441 195.048 18.9631C195.223 18.982 195.377 19.008 195.51 19.0412V21.7259C195.368 21.6832 195.171 21.6454 194.92 21.6122C194.669 21.5791 194.44 21.5625 194.231 21.5625C193.786 21.5625 193.389 21.6596 193.038 21.8537C192.693 22.0431 192.418 22.3082 192.214 22.6491C192.015 22.9901 191.916 23.383 191.916 23.8281V30H188.89ZM201.538 30.2131C200.416 30.2131 199.45 29.9858 198.64 29.5312C197.835 29.072 197.215 28.4233 196.779 27.5852C196.344 26.7424 196.126 25.7457 196.126 24.5952C196.126 23.473 196.344 22.4882 196.779 21.6406C197.215 20.7931 197.828 20.1326 198.619 19.6591C199.414 19.1856 200.347 18.9489 201.417 18.9489C202.137 18.9489 202.807 19.0649 203.427 19.2969C204.052 19.5241 204.597 19.8674 205.061 20.3267C205.529 20.786 205.894 21.3636 206.154 22.0597C206.415 22.7509 206.545 23.5606 206.545 24.4886V25.3196H197.333V23.4446H203.697C203.697 23.009 203.602 22.6231 203.413 22.2869C203.223 21.9508 202.961 21.688 202.625 21.4986C202.293 21.3045 201.907 21.2074 201.467 21.2074C201.008 21.2074 200.6 21.3139 200.245 21.527C199.895 21.7353 199.62 22.017 199.421 22.3722C199.223 22.7225 199.121 23.1132 199.116 23.544V25.3267C199.116 25.8665 199.215 26.3329 199.414 26.7259C199.618 27.1188 199.904 27.4219 200.274 27.6349C200.643 27.848 201.081 27.9545 201.588 27.9545C201.924 27.9545 202.232 27.9072 202.511 27.8125C202.79 27.7178 203.029 27.5758 203.228 27.3864C203.427 27.197 203.579 26.965 203.683 26.6903L206.481 26.875C206.339 27.5473 206.048 28.1345 205.607 28.6364C205.172 29.1335 204.608 29.5218 203.917 29.8011C203.231 30.0758 202.437 30.2131 201.538 30.2131Z" fill="black"/>
<path fill-rule="evenodd" clip-rule="evenodd" d="M16.4805 0.0632828C10.0265 0.59155 4.53224 3.79594 1.81507 8.61657C0.481103 10.9831 -0.0687584 13.3883 0.0068141 16.525C0.0482016 18.2418 0.11625 18.4306 0.886703 18.9665C1.26446 19.2292 1.36701 19.2538 2.08446 19.2538C2.97897 19.2538 2.44115 19.5169 6.70782 16.9929C9.79555 15.1664 10.0383 15.045 10.6034 15.045C10.8623 15.045 11.2634 15.1295 11.5021 15.2344C11.9633 15.4368 12.5042 16.0674 12.626 16.5444C12.7191 16.9093 12.5033 17.5503 12.189 17.842C12.0507 17.9704 10.6738 18.8191 9.12916 19.7283C4.65576 22.3613 3.6171 22.9828 3.19118 23.2809C2.22755 23.9555 2.50823 25.25 3.70331 25.6428C4.10202 25.7737 4.26123 25.7838 4.589 25.6987C4.80873 25.6417 6.53658 24.6811 8.42858 23.5642C10.3206 22.4472 13.1213 20.7948 14.6525 19.892C17.6372 18.1322 17.9663 17.9956 18.7706 18.1825C19.6676 18.3908 20.225 19.0077 20.2377 19.8064C20.2496 20.5599 19.9406 20.9149 18.5497 21.7462C16.8065 22.788 9.00381 27.3929 7.20275 28.4427C6.47186 28.8688 6.2258 29.2055 6.22526 29.7803C6.22462 30.5198 6.6659 31.0298 7.48688 31.2381C8.14058 31.404 8.42202 31.2852 11.0279 29.743C12.2589 29.0145 14.2937 27.8133 15.5497 27.0737C16.8057 26.334 18.4692 25.3542 19.2463 24.8963C20.6509 24.0687 20.663 24.0638 21.3242 24.0638C21.8698 24.0638 22.0696 24.1095 22.4361 24.3183C22.9949 24.6365 23.3179 25.1617 23.3156 25.7482C23.3122 26.5849 23.1056 26.7667 20.1971 28.4921C16.8979 30.4494 14.8741 31.6426 12.914 32.786C11.6161 33.5432 11.3446 33.7431 11.1539 34.082C10.9911 34.3716 10.9447 34.5867 10.9869 34.8573C11.111 35.6538 12.1365 36.2754 12.9925 36.0731C13.2021 36.0235 15.1729 34.9181 17.3721 33.6166C19.5713 32.3151 21.5482 31.1998 21.7652 31.1381C22.6175 30.8961 23.6584 31.2787 24.0793 31.9885C24.3945 32.5201 24.3332 33.3055 23.9422 33.7466C23.79 33.9183 22.4672 34.7652 21.0027 35.6288C18.1636 37.3028 17.8257 37.5803 17.6716 38.365C17.5717 38.874 17.788 39.5589 18.1767 39.9647C18.7415 40.5543 23.2606 43.0364 26.5423 44.5595C29.3028 45.8407 30.3104 46.1247 31.4605 45.9457C32.1559 45.8375 34.0833 45.0586 36.1098 44.067C38.6782 42.8101 42.9047 40.4235 43.44 39.9275C43.7581 39.633 43.9571 39.132 43.9543 38.6325C43.9525 38.291 43.6281 37.5866 43.3515 37.3237C43.2613 37.2378 41.9403 36.4532 40.416 35.58C37.2941 33.7916 37.1329 33.651 37.1475 32.7288C37.1657 31.5853 38.6031 30.7433 39.8013 31.1741C39.995 31.2437 41.9519 32.3638 44.1502 33.6633C48.576 36.2794 48.6386 36.3062 49.4994 35.9476C50.2719 35.6258 50.6006 35.0301 50.3945 34.3257C50.2571 33.8562 50.0402 33.6746 48.6336 32.8509C42.7754 29.4206 39.0133 27.1861 38.7609 26.987C38.3042 26.627 38.1523 26.3058 38.1523 25.7009C38.1523 25.2862 38.2111 25.0798 38.3968 24.8428C38.8713 24.237 39.6804 23.9312 40.4716 24.059C40.8684 24.1231 41.7485 24.6231 48.9278 28.864C51.0719 30.1305 52.9826 31.2042 53.1737 31.2498C54.1839 31.4913 55.2448 30.7441 55.2448 29.7912C55.2448 29.1768 54.9094 28.8439 53.3847 27.945C52.6044 27.485 49.7166 25.7835 46.9673 24.1638C44.218 22.5441 41.8771 21.1514 41.7653 21.0689C41.4731 20.8532 41.1671 20.2322 41.1671 19.855C41.1671 19.1282 41.8276 18.3956 42.6815 18.1754C43.4381 17.9804 43.8353 18.1469 46.8321 19.9162C48.355 20.8153 50.9072 22.3224 52.5036 23.2653C56.9027 25.8638 56.5947 25.7033 57.1942 25.7111C58.0755 25.7225 58.7926 25.0912 58.7919 24.3045C58.7914 23.7376 58.5258 23.3878 57.7559 22.94C56.5685 22.2492 52.9334 20.1062 51.0663 18.996C49.3983 18.0043 49.1761 17.8412 48.9848 17.469C48.6042 16.7288 48.9321 15.837 49.7848 15.2929C50.1717 15.0461 51.1236 14.9763 51.5454 15.164C51.836 15.2933 53.8099 16.4394 56.3736 17.9672C58.1759 19.0413 58.5588 19.2285 59.0522 19.2763C59.9906 19.3673 60.883 18.8922 61.231 18.1163C61.3989 17.742 61.4254 17.3973 61.4212 15.6463C61.4166 13.7517 61.3955 13.5352 61.116 12.5086C60.7337 11.1044 60.3061 10.0572 59.6435 8.90203C57.8362 5.75166 54.9236 3.22392 51.3211 1.67926C48.5604 0.495631 46.3095 0.0374756 43.2586 0.0382156C38.6974 0.0393256 34.8032 1.28447 31.2863 3.86624L30.7006 4.29618L29.9027 3.69734C26.425 1.08763 21.2116 -0.323922 16.4805 0.0632828ZM20.2899 3.44305C23.9977 3.91684 27.4065 5.66657 29.6703 8.25823C30.3203 9.0024 30.4715 9.12505 30.7384 9.12505C30.9983 9.12505 31.1217 9.03338 31.4907 8.56579C32.1579 7.72025 33.838 6.26514 34.8973 5.61523C39.1516 3.00497 44.6239 2.58067 49.3021 4.4982C52.8025 5.93296 55.438 8.41899 56.8019 11.5728C57.3164 12.7623 57.8603 15.23 57.6081 15.23C57.5653 15.23 56.5849 14.6748 55.4293 13.9961C54.2737 13.3174 53.078 12.6695 52.7721 12.5563C50.9711 11.8896 48.8436 12.2124 47.3669 13.3766C46.7342 13.8754 46.0169 14.8117 45.7876 15.4382C45.7178 15.629 45.642 15.785 45.6192 15.785C45.5964 15.785 45.322 15.6968 45.0094 15.5889C44.202 15.3102 42.7 15.2478 41.8546 15.4578C39.9732 15.9252 38.4575 17.2394 38.0513 18.7557C37.891 19.3537 37.9144 20.5007 38.0974 21.0197C38.1854 21.2695 38.258 21.4768 38.2586 21.4805C38.2593 21.4841 38.0132 21.583 37.7118 21.7001C37.4105 21.8173 36.8598 22.158 36.4881 22.4573C34.8068 23.8104 34.363 25.9573 35.3935 27.7514C35.6032 28.1164 35.8969 28.5139 36.0462 28.6346L36.3177 28.8541L35.5878 29.4356C33.7613 30.8907 33.3373 33.0457 34.5061 34.9327C34.985 35.7057 35.6423 36.2245 37.5951 37.3704L39.349 38.3997L39.0774 38.5855C38.1162 39.2429 33.2634 41.7293 31.7182 42.356L30.8204 42.7203L29.6929 42.2486C27.899 41.4981 22.7008 38.8631 22.2129 38.4569C22.1672 38.4189 22.9498 37.9007 23.952 37.3055C26.4232 35.8379 27.0258 35.225 27.4666 33.73C27.9124 32.2182 27.2134 30.4215 25.7591 29.3411L25.1672 28.9014L25.6299 28.3319C26.9033 26.7644 26.9259 24.7532 25.6874 23.1952C25.4606 22.9099 25.1368 22.5647 24.968 22.4281C24.7043 22.2149 23.5746 21.5825 23.3117 21.501C23.2635 21.486 23.2927 21.224 23.3766 20.9188C23.8068 19.3525 23.2945 17.7899 21.978 16.6526C20.8574 15.6847 19.557 15.2638 17.9423 15.3466C17.394 15.3747 16.7947 15.4708 16.4438 15.587C16.122 15.6936 15.8518 15.7713 15.8431 15.7597C15.8345 15.7482 15.6715 15.4481 15.4811 15.0926C14.7878 13.7987 13.7824 12.9437 12.4442 12.5103C11.1626 12.0952 9.82823 12.1106 8.62519 12.5543C8.35311 12.6547 7.23006 13.2693 6.12958 13.9202C5.029 14.571 4.06031 15.1386 3.97689 15.1814C3.84886 15.2472 3.83596 15.1296 3.8938 14.4285C4.19469 10.7803 6.48992 7.37948 10.01 5.36585C11.6654 4.41892 14.162 3.62815 16.2191 3.39912C17.3773 3.27017 19.0806 3.28858 20.2899 3.44305Z" fill="black"/>
</svg>
