<svg width="174" height="34" viewBox="0 0 174 34" fill="none" xmlns="http://www.w3.org/2000/svg">
<path d="M50.1186 24C49.9719 24 49.8519 23.9533 49.7586 23.86C49.6653 23.7667 49.6186 23.6533 49.6186 23.52L49.6186 10.5C49.6186 10.3533 49.6653 10.2333 49.7586 10.14C49.8519 10.0467 49.9719 10 50.1186 10L51.6986 10C51.8853 10 52.0253 10.0533 52.1186 10.16C52.2119 10.2533 52.2719 10.3267 52.2986 10.38L56.1586 17.58L60.0586 10.38C60.0853 10.3267 60.1453 10.2533 60.2386 10.16C60.3319 10.0533 60.4719 10 60.6586 10L62.2186 10C62.3653 10 62.4853 10.0467 62.5786 10.14C62.6719 10.2333 62.7186 10.3533 62.7186 10.5L62.7186 23.52C62.7186 23.6533 62.6719 23.7667 62.5786 23.86C62.4853 23.9533 62.3653 24 62.2186 24L60.5386 24C60.3919 24 60.2719 23.9533 60.1786 23.86C60.0986 23.7667 60.0586 23.6533 60.0586 23.52L60.0586 14.86L57.2586 20.2C57.1919 20.32 57.1053 20.4267 56.9986 20.52C56.8919 20.6 56.7519 20.64 56.5786 20.64L55.7586 20.64C55.5719 20.64 55.4253 20.6 55.3186 20.52C55.2253 20.4267 55.1453 20.32 55.0786 20.2L52.2786 14.86L52.2786 23.52C52.2786 23.6533 52.2319 23.7667 52.1386 23.86C52.0453 23.9533 51.9319 24 51.7986 24L50.1186 24ZM67.4695 27.8C67.3629 27.8 67.2695 27.76 67.1895 27.68C67.1095 27.6 67.0695 27.5067 67.0695 27.4C67.0695 27.3467 67.0695 27.2933 67.0695 27.24C67.0829 27.2 67.1095 27.1467 67.1495 27.08L68.7095 23.38L64.8695 14.32C64.8162 14.1867 64.7895 14.0933 64.7895 14.04C64.8029 13.92 64.8495 13.82 64.9295 13.74C65.0095 13.6467 65.1095 13.6 65.2295 13.6L66.8495 13.6C67.0095 13.6 67.1295 13.64 67.2095 13.72C67.2895 13.8 67.3495 13.8867 67.3895 13.98L70.0495 20.52L72.7895 13.98C72.8295 13.8733 72.8895 13.7867 72.9695 13.72C73.0495 13.64 73.1695 13.6 73.3295 13.6L74.9295 13.6C75.0362 13.6 75.1295 13.64 75.2095 13.72C75.3029 13.8 75.3495 13.8933 75.3495 14C75.3495 14.08 75.3229 14.1867 75.2695 14.32L69.6095 27.42C69.5562 27.5267 69.4895 27.6133 69.4095 27.68C69.3295 27.76 69.2095 27.8 69.0495 27.8L67.4695 27.8ZM77.7939 24C77.6606 24 77.5472 23.9533 77.4539 23.86C77.3606 23.7667 77.3139 23.6533 77.3139 23.52L77.3139 10.5C77.3139 10.3533 77.3606 10.2333 77.4539 10.14C77.5472 10.0467 77.6606 10 77.7939 10L82.6739 10C84.0206 10 85.1272 10.2067 85.9939 10.62C86.8739 11.0333 87.5339 11.6467 87.9739 12.46C88.4272 13.2733 88.6606 14.2667 88.6739 15.44C88.7006 16.0267 88.7139 16.5467 88.7139 17C88.7139 17.4533 88.7006 17.9667 88.6739 18.54C88.6472 19.78 88.4206 20.8067 87.9939 21.62C87.5672 22.42 86.9206 23.02 86.0539 23.42C85.2006 23.8067 84.1072 24 82.7739 24L77.7939 24ZM80.0939 21.7L82.6739 21.7C83.4206 21.7 84.0272 21.5933 84.4939 21.38C84.9606 21.1667 85.3006 20.8267 85.5139 20.36C85.7406 19.88 85.8606 19.2533 85.8739 18.48C85.8872 18.08 85.8939 17.7333 85.8939 17.44C85.9072 17.1333 85.9072 16.8333 85.8939 16.54C85.8939 16.2333 85.8872 15.8867 85.8739 15.5C85.8472 14.4067 85.5739 13.6 85.0539 13.08C84.5339 12.56 83.7072 12.3 82.5739 12.3L80.0939 12.3L80.0939 21.7ZM95.6164 24.2C94.1364 24.2 92.9631 23.7733 92.0964 22.92C91.2297 22.0667 90.7631 20.8533 90.6964 19.28C90.6831 19.1467 90.6764 18.98 90.6764 18.78C90.6764 18.5667 90.6831 18.4 90.6964 18.28C90.7497 17.28 90.9764 16.4133 91.3764 15.68C91.7897 14.9467 92.3564 14.3867 93.0764 14C93.7964 13.6 94.6431 13.4 95.6164 13.4C96.6964 13.4 97.6031 13.6267 98.3364 14.08C99.0697 14.52 99.6231 15.14 99.9964 15.94C100.37 16.7267 100.556 17.64 100.556 18.68L100.556 19.1C100.556 19.2333 100.51 19.3467 100.416 19.44C100.323 19.5333 100.203 19.58 100.056 19.58L93.4164 19.58C93.4164 19.58 93.4164 19.6 93.4164 19.64C93.4164 19.68 93.4164 19.7133 93.4164 19.74C93.4297 20.2067 93.5164 20.64 93.6764 21.04C93.8497 21.4267 94.0964 21.74 94.4164 21.98C94.7497 22.22 95.1431 22.34 95.5964 22.34C95.9697 22.34 96.2831 22.2867 96.5364 22.18C96.7897 22.06 96.9964 21.9267 97.1564 21.78C97.3164 21.6333 97.4297 21.5133 97.4964 21.42C97.6164 21.26 97.7097 21.1667 97.7764 21.14C97.8564 21.1 97.9697 21.08 98.1164 21.08L99.8364 21.08C99.9697 21.08 100.076 21.12 100.156 21.2C100.25 21.28 100.29 21.38 100.276 21.5C100.263 21.7133 100.15 21.9733 99.9364 22.28C99.7364 22.5867 99.4431 22.8867 99.0564 23.18C98.6697 23.4733 98.1831 23.72 97.5964 23.92C97.0231 24.1067 96.3631 24.2 95.6164 24.2ZM93.4164 17.9L97.8364 17.9L97.8364 17.84C97.8364 17.32 97.7497 16.8667 97.5764 16.48C97.4031 16.0933 97.1497 15.7867 96.8164 15.56C96.4831 15.3333 96.0831 15.22 95.6164 15.22C95.1497 15.22 94.7497 15.3333 94.4164 15.56C94.0831 15.7867 93.8297 16.0933 93.6564 16.48C93.4964 16.8667 93.4164 17.32 93.4164 17.84L93.4164 17.9ZM106.619 24.2C105.819 24.2 105.133 24.1067 104.559 23.92C103.999 23.7333 103.539 23.5 103.179 23.22C102.819 22.94 102.553 22.66 102.379 22.38C102.206 22.1 102.113 21.8667 102.099 21.68C102.086 21.5333 102.126 21.42 102.219 21.34C102.326 21.2467 102.439 21.2 102.559 21.2L104.139 21.2C104.193 21.2 104.239 21.2067 104.279 21.22C104.319 21.2333 104.373 21.2733 104.439 21.34C104.613 21.4867 104.793 21.64 104.979 21.8C105.179 21.96 105.413 22.1 105.679 22.22C105.946 22.3267 106.279 22.38 106.679 22.38C107.199 22.38 107.633 22.28 107.979 22.08C108.339 21.8667 108.519 21.5667 108.519 21.18C108.519 20.9 108.439 20.6733 108.279 20.5C108.133 20.3267 107.853 20.1733 107.439 20.04C107.026 19.8933 106.439 19.74 105.679 19.58C104.933 19.4067 104.313 19.1867 103.819 18.92C103.326 18.6533 102.959 18.32 102.719 17.92C102.479 17.52 102.359 17.0533 102.359 16.52C102.359 16 102.513 15.5067 102.819 15.04C103.139 14.56 103.606 14.1667 104.219 13.86C104.846 13.5533 105.619 13.4 106.539 13.4C107.259 13.4 107.886 13.4933 108.419 13.68C108.953 13.8533 109.393 14.0733 109.739 14.34C110.099 14.6067 110.373 14.88 110.559 15.16C110.746 15.4267 110.846 15.66 110.859 15.86C110.873 16.0067 110.833 16.1267 110.739 16.22C110.646 16.3 110.539 16.34 110.419 16.34L108.939 16.34C108.873 16.34 108.813 16.3267 108.759 16.3C108.706 16.2733 108.653 16.24 108.599 16.2C108.453 16.0667 108.293 15.9267 108.119 15.78C107.946 15.6333 107.733 15.5067 107.479 15.4C107.239 15.28 106.919 15.22 106.519 15.22C106.013 15.22 105.626 15.3333 105.359 15.56C105.093 15.7733 104.959 16.0467 104.959 16.38C104.959 16.6067 105.019 16.8067 105.139 16.98C105.273 17.14 105.533 17.2933 105.919 17.44C106.306 17.5867 106.893 17.74 107.679 17.9C108.573 18.06 109.279 18.3 109.799 18.62C110.333 18.9267 110.706 19.2867 110.919 19.7C111.146 20.1 111.259 20.5467 111.259 21.04C111.259 21.64 111.079 22.18 110.719 22.66C110.373 23.14 109.853 23.52 109.159 23.8C108.479 24.0667 107.633 24.2 106.619 24.2ZM116.344 24.2C115.651 24.2 115.024 24.0667 114.464 23.8C113.904 23.52 113.457 23.1533 113.124 22.7C112.804 22.2333 112.644 21.7133 112.644 21.14C112.644 20.2067 113.017 19.4667 113.764 18.92C114.524 18.36 115.524 17.9867 116.764 17.8L119.504 17.4L119.504 16.98C119.504 16.42 119.364 15.9867 119.084 15.68C118.804 15.3733 118.324 15.22 117.644 15.22C117.164 15.22 116.771 15.32 116.464 15.52C116.171 15.7067 115.951 15.96 115.804 16.28C115.697 16.4533 115.544 16.54 115.344 16.54L113.764 16.54C113.617 16.54 113.504 16.5 113.424 16.42C113.357 16.34 113.324 16.2333 113.324 16.1C113.337 15.8867 113.424 15.6267 113.584 15.32C113.744 15.0133 113.997 14.72 114.344 14.44C114.691 14.1467 115.137 13.9 115.684 13.7C116.231 13.5 116.891 13.4 117.664 13.4C118.504 13.4 119.211 13.5067 119.784 13.72C120.371 13.92 120.837 14.1933 121.184 14.54C121.531 14.8867 121.784 15.2933 121.944 15.76C122.104 16.2267 122.184 16.72 122.184 17.24L122.184 23.52C122.184 23.6533 122.137 23.7667 122.044 23.86C121.951 23.9533 121.837 24 121.704 24L120.084 24C119.937 24 119.817 23.9533 119.724 23.86C119.644 23.7667 119.604 23.6533 119.604 23.52L119.604 22.74C119.431 22.9933 119.197 23.2333 118.904 23.46C118.611 23.6733 118.251 23.8533 117.824 24C117.411 24.1333 116.917 24.2 116.344 24.2ZM117.024 22.3C117.491 22.3 117.911 22.2 118.284 22C118.671 21.8 118.971 21.4933 119.184 21.08C119.411 20.6533 119.524 20.12 119.524 19.48L119.524 19.06L117.524 19.38C116.737 19.5 116.151 19.6933 115.764 19.96C115.377 20.2267 115.184 20.5533 115.184 20.94C115.184 21.2333 115.271 21.4867 115.444 21.7C115.631 21.9 115.864 22.0533 116.144 22.16C116.424 22.2533 116.717 22.3 117.024 22.3ZM134.96 24.2C133.72 24.2 132.667 23.9867 131.8 23.56C130.947 23.12 130.293 22.5 129.84 21.7C129.387 20.8867 129.133 19.9133 129.08 18.78C129.067 18.2333 129.06 17.6467 129.06 17.02C129.06 16.3933 129.067 15.7933 129.08 15.22C129.133 14.1 129.387 13.1333 129.84 12.32C130.307 11.5067 130.967 10.8867 131.82 10.46C132.687 10.02 133.733 9.8 134.96 9.8C135.867 9.8 136.68 9.92 137.4 10.16C138.12 10.4 138.733 10.7333 139.24 11.16C139.747 11.5733 140.14 12.06 140.42 12.62C140.7 13.18 140.847 13.7867 140.86 14.44C140.873 14.56 140.833 14.66 140.74 14.74C140.66 14.82 140.56 14.86 140.44 14.86L138.54 14.86C138.393 14.86 138.273 14.8267 138.18 14.76C138.087 14.68 138.02 14.5533 137.98 14.38C137.767 13.5 137.4 12.9 136.88 12.58C136.36 12.26 135.713 12.1 134.94 12.1C134.047 12.1 133.333 12.3533 132.8 12.86C132.267 13.3533 131.98 14.1733 131.94 15.32C131.9 16.4133 131.9 17.5333 131.94 18.68C131.98 19.8267 132.267 20.6533 132.8 21.16C133.333 21.6533 134.047 21.9 134.94 21.9C135.713 21.9 136.36 21.74 136.88 21.42C137.4 21.0867 137.767 20.4867 137.98 19.62C138.02 19.4333 138.087 19.3067 138.18 19.24C138.273 19.1733 138.393 19.14 138.54 19.14L140.44 19.14C140.56 19.14 140.66 19.18 140.74 19.26C140.833 19.34 140.873 19.44 140.86 19.56C140.847 20.2133 140.7 20.82 140.42 21.38C140.14 21.94 139.747 22.4333 139.24 22.86C138.733 23.2733 138.12 23.6 137.4 23.84C136.68 24.08 135.867 24.2 134.96 24.2ZM146.012 24.2C145.319 24.2 144.692 24.0667 144.132 23.8C143.572 23.52 143.125 23.1533 142.792 22.7C142.472 22.2333 142.312 21.7133 142.312 21.14C142.312 20.2067 142.685 19.4667 143.432 18.92C144.192 18.36 145.192 17.9867 146.432 17.8L149.172 17.4L149.172 16.98C149.172 16.42 149.032 15.9867 148.752 15.68C148.472 15.3733 147.992 15.22 147.312 15.22C146.832 15.22 146.439 15.32 146.132 15.52C145.839 15.7067 145.619 15.96 145.472 16.28C145.365 16.4533 145.212 16.54 145.012 16.54L143.432 16.54C143.285 16.54 143.172 16.5 143.092 16.42C143.025 16.34 142.992 16.2333 142.992 16.1C143.005 15.8867 143.092 15.6267 143.252 15.32C143.412 15.0133 143.665 14.72 144.012 14.44C144.359 14.1467 144.805 13.9 145.352 13.7C145.899 13.5 146.559 13.4 147.332 13.4C148.172 13.4 148.879 13.5067 149.452 13.72C150.039 13.92 150.505 14.1933 150.852 14.54C151.199 14.8867 151.452 15.2933 151.612 15.76C151.772 16.2267 151.852 16.72 151.852 17.24L151.852 23.52C151.852 23.6533 151.805 23.7667 151.712 23.86C151.619 23.9533 151.505 24 151.372 24L149.752 24C149.605 24 149.485 23.9533 149.392 23.86C149.312 23.7667 149.272 23.6533 149.272 23.52L149.272 22.74C149.099 22.9933 148.865 23.2333 148.572 23.46C148.279 23.6733 147.919 23.8533 147.492 24C147.079 24.1333 146.585 24.2 146.012 24.2ZM146.692 22.3C147.159 22.3 147.579 22.2 147.952 22C148.339 21.8 148.639 21.4933 148.852 21.08C149.079 20.6533 149.192 20.12 149.192 19.48L149.192 19.06L147.192 19.38C146.405 19.5 145.819 19.6933 145.432 19.96C145.045 20.2267 144.852 20.5533 144.852 20.94C144.852 21.2333 144.939 21.4867 145.112 21.7C145.299 21.9 145.532 22.0533 145.812 22.16C146.092 22.2533 146.385 22.3 146.692 22.3ZM154.898 24C154.764 24 154.651 23.9533 154.558 23.86C154.464 23.7667 154.418 23.6533 154.418 23.52L154.418 14.1C154.418 13.9533 154.464 13.8333 154.558 13.74C154.651 13.6467 154.764 13.6 154.898 13.6L156.518 13.6C156.651 13.6 156.764 13.6467 156.858 13.74C156.964 13.8333 157.018 13.9533 157.018 14.1L157.018 14.92C157.324 14.4933 157.718 14.1667 158.198 13.94C158.691 13.7133 159.258 13.6 159.898 13.6L160.718 13.6C160.864 13.6 160.978 13.6467 161.058 13.74C161.151 13.8333 161.198 13.9467 161.198 14.08L161.198 15.52C161.198 15.6533 161.151 15.7667 161.058 15.86C160.978 15.9533 160.864 16 160.718 16L159.158 16C158.518 16 158.018 16.18 157.658 16.54C157.311 16.9 157.138 17.3933 157.138 18.02L157.138 23.52C157.138 23.6533 157.091 23.7667 156.998 23.86C156.904 23.9533 156.784 24 156.638 24L154.898 24ZM167.101 24.2C165.621 24.2 164.447 23.7733 163.581 22.92C162.714 22.0667 162.247 20.8533 162.181 19.28C162.167 19.1467 162.161 18.98 162.161 18.78C162.161 18.5667 162.167 18.4 162.181 18.28C162.234 17.28 162.461 16.4133 162.861 15.68C163.274 14.9467 163.841 14.3867 164.561 14C165.281 13.6 166.127 13.4 167.101 13.4C168.181 13.4 169.087 13.6267 169.821 14.08C170.554 14.52 171.107 15.14 171.481 15.94C171.854 16.7267 172.041 17.64 172.041 18.68L172.041 19.1C172.041 19.2333 171.994 19.3467 171.901 19.44C171.807 19.5333 171.687 19.58 171.541 19.58L164.901 19.58C164.901 19.58 164.901 19.6 164.901 19.64C164.901 19.68 164.901 19.7133 164.901 19.74C164.914 20.2067 165.001 20.64 165.161 21.04C165.334 21.4267 165.581 21.74 165.901 21.98C166.234 22.22 166.627 22.34 167.081 22.34C167.454 22.34 167.767 22.2867 168.021 22.18C168.274 22.06 168.481 21.9267 168.641 21.78C168.801 21.6333 168.914 21.5133 168.981 21.42C169.101 21.26 169.194 21.1667 169.261 21.14C169.341 21.1 169.454 21.08 169.601 21.08L171.321 21.08C171.454 21.08 171.561 21.12 171.641 21.2C171.734 21.28 171.774 21.38 171.761 21.5C171.747 21.7133 171.634 21.9733 171.421 22.28C171.221 22.5867 170.927 22.8867 170.541 23.18C170.154 23.4733 169.667 23.72 169.081 23.92C168.507 24.1067 167.847 24.2 167.101 24.2ZM164.901 17.9L169.321 17.9L169.321 17.84C169.321 17.32 169.234 16.8667 169.061 16.48C168.887 16.0933 168.634 15.7867 168.301 15.56C167.967 15.3333 167.567 15.22 167.101 15.22C166.634 15.22 166.234 15.3333 165.901 15.56C165.567 15.7867 165.314 16.0933 165.141 16.48C164.981 16.8667 164.901 17.32 164.901 17.84L164.901 17.9Z" fill="#694BF1"/>
<path fill-rule="evenodd" clip-rule="evenodd" d="M9.39114 4.03577C5.71339 4.3344 2.58261 6.1458 1.03428 8.87085C0.274148 10.2086 -0.0391807 11.5682 0.00388294 13.3414C0.0274669 14.3118 0.0662431 14.4186 0.505271 14.7215C0.720528 14.87 0.778965 14.8839 1.18779 14.8839C1.69751 14.8839 1.39104 15.0326 3.82233 13.6059C5.58181 12.5734 5.72013 12.5048 6.04216 12.5048C6.18967 12.5048 6.41822 12.5525 6.55427 12.6118C6.81706 12.7262 7.12531 13.0827 7.19471 13.3523C7.24776 13.5586 7.12475 13.921 6.9457 14.0858C6.86686 14.1584 6.08229 14.6382 5.20209 15.1522C2.653 16.6406 2.06114 16.9919 1.81844 17.1604C1.26933 17.5417 1.42927 18.2735 2.11026 18.4955C2.33746 18.5696 2.42819 18.5753 2.61496 18.5272C2.74017 18.4949 3.72475 17.952 4.80287 17.3206C5.88099 16.6891 7.47692 15.755 8.34946 15.2447C10.0503 14.2499 10.2378 14.1727 10.6961 14.2783C11.2072 14.3961 11.5248 14.7448 11.5321 15.1963C11.5389 15.6223 11.3628 15.8229 10.5702 16.2929C9.57687 16.8818 5.13066 19.4849 4.10436 20.0783C3.68787 20.3192 3.54766 20.5095 3.54735 20.8344C3.54698 21.2525 3.79844 21.5408 4.26626 21.6585C4.63876 21.7523 4.79913 21.6851 6.28406 20.8134C6.98552 20.4015 8.14499 19.7225 8.86071 19.3044C9.57644 18.8863 10.5243 18.3324 10.9672 18.0736C11.7675 17.6057 11.7745 17.603 12.1512 17.603C12.4621 17.603 12.5759 17.6288 12.7848 17.7468C13.1032 17.9267 13.2873 18.2236 13.286 18.5552C13.284 19.0281 13.1663 19.1309 11.509 20.1063C9.62894 21.2127 8.47571 21.8872 7.35881 22.5335C6.6192 22.9616 6.46453 23.0746 6.35586 23.2662C6.26305 23.4299 6.23665 23.5514 6.26066 23.7044C6.33141 24.1546 6.91575 24.506 7.40353 24.3917C7.52299 24.3636 8.64601 23.7388 9.8992 23.0031C11.1523 22.2673 12.2789 21.6369 12.4025 21.602C12.8882 21.4652 13.4813 21.6815 13.7211 22.0827C13.9007 22.3832 13.8658 22.8272 13.643 23.0765C13.5563 23.1736 12.8025 23.6524 11.968 24.1405C10.3502 25.0868 10.1576 25.2437 10.0699 25.6872C10.0129 25.975 10.1361 26.3622 10.3576 26.5916C10.6795 26.9249 13.2546 28.3279 15.1247 29.1889C16.6977 29.9132 17.2718 30.0737 17.9272 29.9725C18.3234 29.9114 19.4218 29.4711 20.5765 28.9105C22.0401 28.2 24.4485 26.8509 24.7535 26.5706C24.9348 26.4041 25.0482 26.1208 25.0466 25.8385C25.0455 25.6455 24.8607 25.2472 24.703 25.0986C24.6516 25.0501 23.8989 24.6066 23.0303 24.113C21.2513 23.102 21.1595 23.0225 21.1678 22.5012C21.1782 21.8548 21.9973 21.3788 22.68 21.6223C22.7904 21.6617 23.9055 22.2949 25.1582 23.0294C27.6801 24.5083 27.7158 24.5234 28.2063 24.3208C28.6465 24.1389 28.8338 23.8021 28.7164 23.4039C28.6381 23.1385 28.5145 23.0359 27.713 22.5702C24.3748 20.6311 22.231 19.368 22.0872 19.2554C21.827 19.0519 21.7404 18.8704 21.7404 18.5284C21.7404 18.294 21.7739 18.1773 21.8797 18.0434C22.1501 17.7009 22.6112 17.528 23.062 17.6003C23.2881 17.6365 23.7896 17.9192 27.8806 20.3165C29.1024 21.0324 30.1912 21.6393 30.3001 21.6652C30.8757 21.8016 31.4803 21.3792 31.4803 20.8406C31.4803 20.4933 31.2891 20.3051 30.4203 19.797C29.9757 19.5369 28.3301 18.5751 26.7635 17.6595C25.1968 16.7439 23.8629 15.9566 23.7992 15.91C23.6327 15.7881 23.4583 15.437 23.4583 15.2238C23.4583 14.8129 23.8347 14.3988 24.3213 14.2744C24.7524 14.1641 24.9788 14.2582 26.6864 15.2584C27.5542 15.7666 29.0085 16.6186 29.9182 17.1516C32.425 18.6205 32.2495 18.5297 32.5911 18.5342C33.0933 18.5406 33.5019 18.1838 33.5015 17.739C33.5012 17.4186 33.3499 17.2208 32.9112 16.9677C32.2345 16.5772 30.1631 15.3658 29.0992 14.7382C28.1487 14.1776 28.0221 14.0854 27.9131 13.875C27.6962 13.4566 27.8831 12.9525 28.369 12.6449C28.5894 12.5054 29.1319 12.4659 29.3722 12.572C29.5378 12.6451 30.6626 13.293 32.1235 14.1566C33.1505 14.7638 33.3687 14.8696 33.6498 14.8966C34.1846 14.9481 34.6931 14.6795 34.8914 14.2409C34.987 14.0293 35.0022 13.8345 34.9998 12.8447C34.9971 11.7737 34.9851 11.6513 34.8259 11.071C34.608 10.2772 34.3644 9.6852 33.9868 9.03221C32.9569 7.25135 31.2972 5.82244 29.2444 4.94927C27.6712 4.28017 26.3886 4.02118 24.6501 4.0216C22.051 4.02223 19.832 4.7261 17.8279 6.18554L17.4942 6.42858L17.0395 6.09006C15.0578 4.61483 12.0871 3.81689 9.39114 4.03577ZM11.5618 5.94631C13.6747 6.21414 15.6171 7.20324 16.9071 8.66828C17.2775 9.08895 17.3636 9.15828 17.5157 9.15828C17.6638 9.15828 17.7341 9.10646 17.9444 8.84214C18.3246 8.36416 19.282 7.54161 19.8856 7.17422C22.3099 5.69867 25.4281 5.45882 28.0939 6.54278C30.0886 7.35383 31.5903 8.75915 32.3675 10.542C32.6607 11.2144 32.9706 12.6094 32.8269 12.6094C32.8026 12.6094 32.2439 12.2955 31.5854 11.9118C30.9269 11.5282 30.2455 11.1619 30.0712 11.0979C29.0449 10.721 27.8327 10.9035 26.9912 11.5616C26.6306 11.8436 26.2219 12.3729 26.0912 12.727C26.0514 12.8349 26.0082 12.9231 25.9953 12.9231C25.9823 12.9231 25.8259 12.8732 25.6478 12.8122C25.1877 12.6547 24.3318 12.6194 23.8501 12.7381C22.778 13.0023 21.9143 13.7452 21.6828 14.6024C21.5915 14.9404 21.6048 15.5888 21.7091 15.8822C21.7593 16.0234 21.8006 16.1406 21.801 16.1426C21.8014 16.1447 21.6611 16.2006 21.4894 16.2668C21.3177 16.3331 21.0039 16.5257 20.7921 16.6948C19.834 17.4598 19.5811 18.6733 20.1683 19.6875C20.2878 19.8939 20.4552 20.1185 20.5403 20.1868L20.695 20.3109L20.2791 20.6396C19.2383 21.4621 18.9967 22.6803 19.6627 23.747C19.9355 24.184 20.3101 24.4773 21.4229 25.125L22.4223 25.7069L22.2675 25.8119C21.7198 26.1835 18.9546 27.589 18.0741 27.9434L17.5624 28.1493L16.92 27.8826C15.8977 27.4584 12.9356 25.9688 12.6576 25.7392C12.6316 25.7177 13.0775 25.4248 13.6486 25.0884C15.0568 24.2588 15.4001 23.9123 15.6514 23.0672C15.9054 22.2126 15.5071 21.1969 14.6783 20.5862L14.3411 20.3376L14.6047 20.0157C15.3304 19.1296 15.3432 17.9927 14.6375 17.112C14.5082 16.9507 14.3237 16.7555 14.2276 16.6783C14.0773 16.5578 13.4335 16.2003 13.2838 16.1543C13.2563 16.1458 13.2729 15.9977 13.3207 15.8251C13.5659 14.9397 13.274 14.0564 12.5238 13.4135C11.8852 12.8664 11.1442 12.6284 10.2241 12.6752C9.91164 12.6911 9.57013 12.7455 9.37019 12.8111C9.18685 12.8714 9.03284 12.9153 9.02788 12.9088C9.02298 12.9023 8.93012 12.7326 8.82163 12.5317C8.42658 11.8002 7.85365 11.3169 7.09112 11.0719C6.36082 10.8373 5.60044 10.846 4.91491 11.0968C4.75987 11.1535 4.11992 11.501 3.49283 11.8689C2.86568 12.2368 2.3137 12.5576 2.26616 12.5819C2.1932 12.619 2.18585 12.5526 2.21881 12.1563C2.39027 10.094 3.69816 8.17153 5.70402 7.03325C6.64732 6.49796 8.06995 6.05095 9.24216 5.92148C9.90214 5.84859 10.8728 5.85899 11.5618 5.94631Z" fill="#694BF1"/>
</svg>
