<svg width="173" height="130" viewBox="0 0 173 130" fill="none" xmlns="http://www.w3.org/2000/svg">
<path fill-rule="evenodd" clip-rule="evenodd" d="M46.419 0.178865C28.2405 1.67198 12.7655 10.729 5.11232 24.3542C1.35507 31.0431 -0.193665 37.8412 0.0191926 46.7071C0.135764 51.5592 0.32743 52.0931 2.49748 53.6076C3.56147 54.3501 3.85031 54.4197 5.8711 54.4197C8.39056 54.4197 6.87573 55.1632 18.8932 48.0294C27.5901 42.8669 28.2738 42.5239 29.8655 42.5239C30.5946 42.5239 31.7243 42.7626 32.3968 43.0591C33.6958 43.6311 35.2194 45.4134 35.5624 46.7617C35.8246 47.7931 35.2166 49.6049 34.3316 50.4292C33.9419 50.7921 30.0639 53.1912 25.7132 55.7609C13.1134 63.203 10.1879 64.9594 8.98827 65.802C6.27411 67.7087 7.06467 71.3676 10.4307 72.4777C11.5538 72.8479 12.0022 72.8765 12.9254 72.6359C13.5443 72.4746 18.4109 69.7598 23.7399 66.6028C29.0689 63.4456 36.9573 58.7751 41.2702 56.2237C49.677 51.2497 50.6038 50.8635 52.8693 51.3916C55.3957 51.9804 56.9656 53.7242 57.0014 55.9816C57.035 58.1113 56.1648 59.1147 52.247 61.4644C47.3371 64.409 25.3601 77.4243 20.2873 80.3917C18.2286 81.5959 17.5356 82.5476 17.5341 84.1722C17.5322 86.2625 18.7752 87.7038 21.0875 88.2926C22.9287 88.7616 23.7214 88.4257 31.0612 84.0668C34.5284 82.0077 40.2595 78.6125 43.7972 76.522C47.335 74.4315 52.0203 71.662 54.2091 70.3679C58.1653 68.0287 58.1995 68.0149 60.0616 68.0149C61.5985 68.0149 62.1611 68.144 63.1936 68.7341C64.7675 69.6335 65.677 71.118 65.6707 72.7758C65.661 75.1406 65.079 75.6546 56.8872 80.5313C47.5945 86.0635 41.8942 89.4359 36.3736 92.6676C32.7178 94.8078 31.9532 95.3728 31.4161 96.3307C30.9574 97.1493 30.8269 97.7572 30.9456 98.5222C31.2953 100.773 34.1835 102.53 36.5946 101.958C37.185 101.818 42.736 98.694 48.9303 95.0154C55.1244 91.3366 60.6926 88.1844 61.3039 88.01C63.7044 87.326 66.6363 88.4074 67.8217 90.4137C68.7094 91.9162 68.5368 94.1359 67.4356 95.3827C67.0069 95.868 63.2811 98.2618 59.1563 100.703C51.1594 105.434 50.2078 106.218 49.7739 108.436C49.4923 109.875 50.1015 111.811 51.1964 112.958C52.7872 114.624 65.5156 121.64 74.759 125.945C82.5342 129.566 85.3722 130.369 88.6114 129.863C90.5701 129.557 95.9991 127.355 101.707 124.553C108.941 121 120.845 114.255 122.353 112.853C123.249 112.02 123.809 110.604 123.802 109.193C123.796 108.227 122.883 106.236 122.104 105.493C121.85 105.25 118.129 103.033 113.835 100.565C105.042 95.5098 104.588 95.1124 104.63 92.5061C104.681 89.2741 108.729 86.8941 112.104 88.1117C112.65 88.3086 118.162 91.4744 124.353 95.1472C136.819 102.542 136.995 102.617 139.42 101.604C141.596 100.694 142.522 99.0105 141.941 97.0196C141.554 95.6925 140.943 95.1793 136.981 92.8512C120.481 83.1554 109.885 76.84 109.174 76.2771C107.888 75.2595 107.46 74.3518 107.46 72.6419C107.46 71.4699 107.625 70.8866 108.148 70.2168C109.485 68.5043 111.764 67.6402 113.992 68.0013C115.11 68.1825 117.589 69.5958 137.81 81.5823C143.849 85.1621 149.231 88.1966 149.769 88.3258C152.614 89.0082 155.602 86.8962 155.602 84.203C155.602 82.4665 154.658 81.5256 150.363 78.9849C148.165 77.6847 140.032 72.8754 132.288 68.2975C124.544 63.7196 117.951 59.7832 117.636 59.55C116.813 58.9403 115.951 57.185 115.951 56.1191C115.951 54.0647 117.812 51.994 120.217 51.3718C122.348 50.8206 123.466 51.2912 131.907 56.2919C136.197 58.8332 143.385 63.0929 147.881 65.7581C160.272 73.1026 159.405 72.6487 161.093 72.6709C163.575 72.7031 165.595 70.9188 165.593 68.6952C165.592 67.0928 164.844 66.1042 162.675 64.8386C159.331 62.8861 149.092 56.8289 143.833 53.691C139.135 50.8881 138.509 50.4272 137.97 49.3751C136.899 47.283 137.822 44.7624 140.224 43.2246C141.313 42.5268 143.995 42.3297 145.183 42.8601C146.001 43.2256 151.561 46.465 158.782 50.7832C163.858 53.8192 164.937 54.3481 166.326 54.4832C168.969 54.7405 171.483 53.3977 172.463 51.2047C172.936 50.1466 173.011 49.1725 172.999 44.2233C172.986 38.8684 172.927 38.2563 172.139 35.3548C171.062 31.3858 169.858 28.426 167.992 25.161C162.901 16.2567 154.698 9.11221 144.551 4.74633C136.775 1.40087 130.435 0.105923 121.842 0.108014C108.995 0.111152 98.0265 3.63048 88.1209 10.9277L86.4714 12.1429L84.2238 10.4503C74.4287 3.07413 59.7446 -0.915547 46.419 0.178865ZM57.1485 9.73157C67.5918 11.0707 77.1931 16.0162 83.5692 23.3414C85.4001 25.4447 85.8258 25.7914 86.5776 25.7914C87.3098 25.7914 87.6574 25.5323 88.6965 24.2107C90.5759 21.8208 95.3081 17.708 98.2917 15.8711C110.274 8.49337 125.688 7.29411 138.864 12.7139C148.723 16.7692 156.147 23.7958 159.988 32.7098C161.437 36.072 162.969 43.0468 162.259 43.0468C162.138 43.0468 159.377 41.4773 156.122 39.5591C152.867 37.6409 149.499 35.8095 148.638 35.4897C143.565 33.6052 137.573 34.5177 133.414 37.8082C131.631 39.2179 129.611 41.8643 128.965 43.6351C128.768 44.1744 128.555 44.6155 128.491 44.6155C128.427 44.6155 127.654 44.3661 126.773 44.061C124.499 43.2735 120.269 43.097 117.888 43.6905C112.588 45.0116 108.319 48.7262 107.175 53.0118C106.724 54.7021 106.79 57.944 107.305 59.411C107.553 60.1169 107.757 60.7028 107.759 60.7132C107.761 60.7234 107.068 61.0029 106.219 61.3342C105.37 61.6654 103.819 62.6283 102.772 63.4741C98.0368 67.2988 96.7866 73.3667 99.6891 78.4377C100.28 79.4693 101.107 80.5927 101.528 80.9339L102.292 81.5544L100.237 83.1978C95.0919 87.3106 93.8977 93.4017 97.1899 98.7352C98.5385 100.92 100.39 102.386 105.89 105.625L110.83 108.535L110.065 109.059C107.358 110.918 93.6897 117.945 89.3375 119.717L86.8087 120.746L83.633 119.413C78.5802 117.292 63.9391 109.844 62.5647 108.696C62.436 108.589 64.6403 107.124 67.4632 105.442C74.4236 101.294 76.1207 99.5614 77.3624 95.3359C78.618 91.0629 76.6493 85.9846 72.553 82.9309L70.8858 81.6879L72.189 80.0785C75.7758 75.648 75.8394 69.9634 72.351 65.5599C71.7121 64.7533 70.8001 63.7776 70.3248 63.3917C69.582 62.7891 66.4001 61.0016 65.6598 60.7713C65.5238 60.7289 65.6062 59.9885 65.8424 59.1257C67.0541 54.6987 65.6113 50.2821 61.9031 47.0676C58.7469 44.3318 55.0841 43.1422 50.5363 43.3762C48.9918 43.4557 47.3038 43.7274 46.3155 44.0557C45.4093 44.3569 44.6481 44.5765 44.6235 44.5438C44.5993 44.5114 44.1403 43.663 43.6041 42.6583C41.6514 39.0012 38.8195 36.5847 35.0504 35.3595C31.4406 34.1864 27.6822 34.2298 24.2937 35.484C23.5273 35.7676 20.3642 37.5049 17.2646 39.3445C14.1647 41.184 11.4363 42.7882 11.2013 42.9093C10.8407 43.0952 10.8044 42.7629 10.9673 40.7814C11.8147 30.47 18.2795 20.8577 28.1942 15.1662C32.8567 12.4898 39.8886 10.2547 45.6827 9.60739C48.9449 9.24294 53.7425 9.29496 57.1485 9.73157Z" fill="#ffff"/>
</svg>
